<?xml version="1.0" encoding="utf-8"?><!DOCTYPE svg PUBLIC "-//W3C//DTD SVG 1.1//EN" "http://www.w3.org/Graphics/SVG/1.1/DTD/svg11.dtd"><svg version="1.1" id="Calque_1" xmlns="http://www.w3.org/2000/svg" xmlns:xlink="http://www.w3.org/1999/xlink" x="0px" y="0px" viewBox="0 0 1940 640" enable-background="new 0 0 1940 640" xml:space="preserve"><g><path fill="#FFFFFF" d="M156.1,273.9H29v142.7l84.6,76.2V354.2h45.2c28.7,0,42.9,13.8,42.9,36v106c0,22.2-13.4,37.1-42.9,37.1H28.6v80.7h127c68.1,0.4,132-33.7,132-111.7v-114C288.1,308.7,224.2,273.9,156.1,273.9L156.1,273.9z"/><path fill="#FFFFFF" d="M821.9,502.3V385.2c0-42.1,75.8-51.7,98.7-9.6l70-28.3c-27.6-60.5-77.7-78.1-119.4-78.1c-68.1,0-135.5,39.4-135.5,115.9v117.1c0,77.3,67.3,115.9,133.9,115.9c42.9,0,94.1-21,122.5-76.2l-75-34.4C898.8,554.8,821.9,543.3,821.9,502.3L821.9,502.3z"/><path fill="#FFFFFF" d="M590.4,401.3c-26.4-5.7-44-15.3-45.2-31.8c1.5-39.4,62.4-40.9,98-3.1l56.3-43.2c-35.2-42.9-75-54.3-115.9-54.3c-62.4,0-122.8,35.2-122.8,101.8c0,64.7,49.7,99.5,104.5,107.9c27.9,3.8,58.9,14.9,58.2,34.1c-2.3,36.4-77.3,34.4-111.4-6.9l-54.3,50.9c31.8,40.9,75,61.6,115.6,61.6c62.4,0,131.6-36,134.3-101.8C711.3,433.5,650.9,412.4,590.4,401.3L590.4,401.3z"/><rect x="334" y="273.9" fill="#FFFFFF" width="85.7" height="339.8"/><path fill="#FFFFFF" d="M1779.3,273.9h-127v142.7l84.6,76.2V354.2h45.2c28.7,0,42.9,13.8,42.9,36v106c0,22.2-13.4,37.1-42.9,37.1h-130.1v80.7h127.4c68.1,0.4,132-33.7,132-111.7v-114C1911.4,308.7,1847.5,273.9,1779.3,273.9L1779.3,273.9z"/><path fill="#FFFFFF" d="M1156,269.3c-70.4,0-140.4,38.3-140.4,116.7V502c0,77.7,70.4,116.7,141.2,116.7c70.4,0,140.4-39,140.4-116.7V386C1297.2,307.9,1226.4,269.3,1156,269.3z M1211.1,502c0,24.5-27.6,37.1-54.7,37.1c-27.6,0-55.1-11.9-55.1-37.1V386c0-24.9,26.8-38.3,53.6-38.3c27.9,0,56.3,11.9,56.3,38.3V502z"/><path fill="#FFFFFF" d="M1538.3,497.4c40.9-13,66.6-48.6,66.6-111.4c-1.9-79.6-56.3-111.7-126.3-111.7h-135.8v339.8h86.9V506.2h15.3l78.8,107.9h107.1L1538.3,497.4z M1480.1,431.9h-50.5v-77.7h50.5C1534.1,354.2,1534.1,431.9,1480.1,431.9z"/></g><g><path fill="#3E82E5" d="M103.3,43.3H28.6v77.1l47.7,43V81.7h27.8c29.6,0,29.6,37.2,0,37.2H85.8v35.6h18.3c29.6,0,29.6,37.2,0,37.2H28.6V230h74.6c38.5,0,68.3-15.4,69.4-53.6c0-17.6-4.8-30.7-13.3-39.8c8.5-9.1,13.3-22.2,13.3-39.8C171.6,58.7,141.8,43.3,103.3,43.3z"/><polygon fill="#3E82E5" points="358.7,43.3 358.7,81.7 406.8,81.7 406.8,230 454.5,230 454.5,81.7 529.8,81.7 529.8,230 577.6,230 577.6,81.7 625.7,81.7 625.7,43.3 "/><polygon fill="#3E82E5" points="197.6,43.3 197.6,230 341.7,230 341.7,191.7 245.4,191.7 245.4,160.5 296.5,160.5 296.5,112.8 245.4,112.8 245.4,81.7 341.7,81.7 341.7,43.3 "/><polygon fill="#3E82E5" points="642.4,43.3 642.4,230 786.4,230 786.4,191.7 690.1,191.7 690.1,160.5 741.3,160.5 741.3,112.8 690.1,112.8 690.1,81.7 786.4,81.7 786.4,43.3 "/><path fill="#3E82E5" d="M918.6,166c22.5-7.1,36.5-26.6,36.5-61.1c-1-43.6-30.8-61.7-69.2-61.7h-74.5V230H859v-59.2h8.4l43.2,59.2h58.7L918.6,166z M886.7,130.2H859V81.7h27.7C916.3,81.7,916.3,130.2,886.7,130.2z"/></g></svg>